<?xml version="1.0" encoding="UTF-8" standalone="no"?>
<svg width="240px" height="240px" viewBox="0 0 240 240" version="1.1" xmlns="http://www.w3.org/2000/svg" xmlns:xlink="http://www.w3.org/1999/xlink" xmlns:sketch="http://www.bohemiancoding.com/sketch/ns">
    <!-- Generator: Sketch 3.4.2 (15855) - http://www.bohemiancoding.com/sketch -->
    <title>fuel_level_tech</title>
    <desc>Created with Sketch.</desc>
    <defs></defs>
    <g id="Page-1" stroke="none" stroke-width="1" fill="none" fill-rule="evenodd" sketch:type="MSPage">
        <g id="fuel_level_tech" sketch:type="MSArtboardGroup">
            <rect id="Rectangle-28" fill="#8D6E63" sketch:type="MSShapeGroup" x="0" y="0" width="240" height="240"></rect>
            <g id="Tank-+-Rectangle-21-+-Oval-9-+-Rectangle-23" sketch:type="MSLayerGroup" transform="translate(58.000000, 43.000000)">
                <rect id="Tank" stroke="#FFFFFF" stroke-width="7" sketch:type="MSShapeGroup" x="0" y="30" width="125" height="125" rx="8"></rect>
                <g id="Rectangle-21-+-Oval-9-+-Rectangle-23" fill="#FFFFFF" sketch:type="MSShapeGroup">
                    <g id="Group" transform="translate(0.000000, 28.000000)" stroke="#FFFFFF">
                        <path d="M1,67 L125,67 L124,75 L4,75 L1,67 Z" id="Rectangle-22-Copy-4"></path>
                        <path d="M0,50 L124,50 L121.604938,58 L1,58 L0,50 Z" id="Rectangle-22-Copy-2"></path>
                    </g>
                    <rect id="Rectangle-30" x="5" y="138" width="116" height="8"></rect>
                    <rect id="Rectangle-30-Copy" x="5" y="126" width="116" height="8"></rect>
                    <rect id="Rectangle-30-Copy-2" x="5" y="112" width="116" height="8"></rect>
                    <rect id="Rectangle-27" stroke="#8D6E63" stroke-width="5" x="56" y="12" width="13" height="100" rx="2"></rect>
                    <rect id="Rectangle-30" x="45" y="0" width="35" height="20" rx="5"></rect>
                    <rect id="Rectangle-31" x="44" y="25" width="7" height="12"></rect>
                    <rect id="Rectangle-31-Copy" x="74" y="25" width="7" height="12"></rect>
                </g>
            </g>
        </g>
    </g>
</svg>