<?xml version="1.0" encoding="UTF-8" standalone="no"?>
<svg width="240px" height="240px" viewBox="0 0 240 240" version="1.1" xmlns="http://www.w3.org/2000/svg" xmlns:xlink="http://www.w3.org/1999/xlink" xmlns:sketch="http://www.bohemiancoding.com/sketch/ns">
    <!-- Generator: Sketch 3.4.2 (15855) - http://www.bohemiancoding.com/sketch -->
    <title>fuel_level</title>
    <desc>Created with Sketch.</desc>
    <defs>
        <rect id="path-1" x="0" y="0" width="162" height="77.4"></rect>
    </defs>
    <g id="Page-1" stroke="none" stroke-width="1" fill="none" fill-rule="evenodd" sketch:type="MSPage">
        <g id="fuel_level" sketch:type="MSArtboardGroup">
            <g sketch:type="MSLayerGroup">
                <rect id="Background" fill="#6A1B9A" sketch:type="MSShapeGroup" x="0" y="0" width="240" height="240"></rect>
                <g id="Arc" transform="translate(39.000000, 56.000000)">
                    <mask id="mask-2" sketch:name="Mask" fill="white">
                        <use xlink:href="#path-1"></use>
                    </mask>
                    <use id="Mask" sketch:type="MSShapeGroup" transform="translate(81.000000, 38.700000) scale(1, -1) translate(-81.000000, -38.700000) " xlink:href="#path-1"></use>
                    <path d="M82.8409091,151.114286 C120.459032,151.114286 150.954545,120.586502 150.954545,82.9285714 C150.954545,45.2706413 120.459032,14.7428571 82.8409091,14.7428571 C45.2227865,14.7428571 14.7272727,45.2706413 14.7272727,82.9285714 C14.7272727,120.586502 45.2227865,151.114286 82.8409091,151.114286 Z" id="Oval-6" stroke="#FFFFFF" stroke-width="3" sketch:type="MSShapeGroup" mask="url(#mask-2)"></path>
                    <rect id="Rectangle-19" fill="#FFFFFF" sketch:type="MSShapeGroup" mask="url(#mask-2)" x="81" y="14" width="4" height="10.4"></rect>
                </g>
                <g id="Letters" transform="translate(42.681818, 137.085714)" font-weight="normal" font-family="Roboto Condensed" fill="#FFFFFF" font-size="40.5" sketch:type="MSTextLayer" font-style="condensed">
                    <text id="F">
                        <tspan x="136.227273" y="38">F</tspan>
                    </text>
                    <text id="E">
                        <tspan x="0" y="38">E</tspan>
                    </text>
                </g>
                <g id="Dial" transform="translate(105.000000, 111.000000)" fill="#FFFFFF" sketch:type="MSShapeGroup">
                    <path d="M14.9963182,40.8294868 C11.0641364,40.8294868 7.36390909,39.2962297 4.58045455,36.5098297 C-1.16318182,30.7601154 -1.16318182,21.4094582 4.58045455,15.6634297 C9.2085,11.0304868 31.3546364,2.25111538 35.7470455,0.537258242 C37.113,0.00651538492 38.6556818,0.330858242 39.6865909,1.36654396 C40.7175,2.40222967 41.0451818,3.94654396 40.515,5.31025824 C38.8029545,9.70731538 30.0328636,31.8805725 25.4048182,36.5098297 C22.6287273,39.2962297 18.9285,40.8294868 14.9963182,40.8294868 Z" id="Shape"></path>
                </g>
            </g>
        </g>
    </g>
</svg>