<?xml version="1.0" encoding="UTF-8" standalone="no"?>
<svg width="240px" height="240px" viewBox="0 0 240 240" version="1.1" xmlns="http://www.w3.org/2000/svg" xmlns:xlink="http://www.w3.org/1999/xlink" xmlns:sketch="http://www.bohemiancoding.com/sketch/ns">
    <!-- Generator: Sketch 3.4.2 (15855) - http://www.bohemiancoding.com/sketch -->
    <title>geofences</title>
    <desc>Created with Sketch.</desc>
    <defs></defs>
    <g id="Page-1" stroke="none" stroke-width="1" fill="none" fill-rule="evenodd" sketch:type="MSPage">
        <g id="geofences" sketch:type="MSArtboardGroup">
            <rect id="Background" fill="#009688" sketch:type="MSShapeGroup" x="0" y="0" width="240" height="240"></rect>
            <g id="Surface-Polygon" sketch:type="MSLayerGroup" transform="translate(38.000000, 129.000000)" fill="#80CBC4">
                <path d="M143.574219,75.1772385 L43.0311408,75.1772348 L0.83984375,28.8712559 L70.9345872,0 L163.532734,28.8712558 L143.574219,75.1772385 Z" id="Polygon-1" sketch:type="MSShapeGroup"></path>
            </g>
            <g id="Marker" sketch:type="MSLayerGroup" transform="translate(73.000000, 44.000000)" fill="#FFFFFF">
                <path d="M47,63.7857143 C37.729506,63.7857143 30.2142857,56.270494 30.2142857,47 C30.2142857,42.5481518 31.9827755,38.2786397 35.1307076,35.1307076 C38.2786397,31.9827755 42.5481518,30.2142857 47,30.2142857 C56.270494,30.2142857 63.7857143,37.729506 63.7857143,47 C63.7857143,51.4518482 62.0172245,55.7213603 58.8692924,58.8692924 C55.7213603,62.0172245 51.4518482,63.7857143 47,63.7857143 L47,63.7857143 Z M47,-1.14194368e-15 C21.0426168,-1.00871692e-14 1.3068911e-14,21.0426168 7.10542736e-15,47 C1.3068911e-14,82.25 47,134.285714 47,134.285714 C47,134.285714 94,82.25 94,47 C94,21.0426168 72.9573832,1.83979816e-15 47,-7.10542736e-15 L47,-1.14194368e-15 Z" id="Shape" sketch:type="MSShapeGroup"></path>
            </g>
        </g>
    </g>
</svg>