<?xml version="1.0" encoding="UTF-8" standalone="no"?>
<svg width="240px" height="240px" viewBox="0 0 240 240" version="1.1" xmlns="http://www.w3.org/2000/svg" xmlns:xlink="http://www.w3.org/1999/xlink" xmlns:sketch="http://www.bohemiancoding.com/sketch/ns">
    <!-- Generator: Sketch 3.4.2 (15855) - http://www.bohemiancoding.com/sketch -->
    <title>graph</title>
    <desc>Created with Sketch.</desc>
    <defs></defs>
    <g id="Page-1" stroke="none" stroke-width="1" fill="none" fill-rule="evenodd" sketch:type="MSPage">
        <g id="graph" sketch:type="MSArtboardGroup">
            <rect id="Rectangle-3" fill="#E64A19" sketch:type="MSShapeGroup" x="0" y="0" width="240" height="240"></rect>
            <g sketch:type="MSLayerGroup" transform="translate(50.000000, 50.000000)" stroke="#FAFAFA" stroke-width="3">
                <path d="M0.399239544,0.234113712 L0.399239544,139.317364" id="Line" stroke-linecap="square" sketch:type="MSShapeGroup"></path>
                <g id="Line-+-Line-+-Line" transform="translate(40.798479, 81.003344)" sketch:type="MSShapeGroup">
                    <path d="M98.5361217,36.7558528 L98.5361217,57.826087" id="Line" stroke-linecap="square"></path>
                    <path d="M69.7908745,1.17056856 L69.7908745,57.9497811" id="Line" stroke-linecap="square"></path>
                    <path d="M41.0456274,19.4314381 L41.0456274,57.4300484" id="Line" stroke-linecap="square"></path>
                    <path d="M87.8897338,36.7558528 L87.8897338,57.826087" id="Line-Copy-3" stroke-linecap="square"></path>
                    <path d="M59.1444867,1.17056856 L59.1444867,57.9497811" id="Line-Copy" stroke-linecap="square"></path>
                    <path d="M30.3992395,19.4314381 L30.3992395,57.4300484" id="Line-Copy-2" stroke-linecap="square"></path>
                    <path d="M41.0489657,19.4314381 L30.4360123,19.4314381" id="Path-72"></path>
                    <path d="M11.5,33.357581 L11.5,57.4300484" id="Line-Copy-5" stroke-linecap="square"></path>
                    <path d="M1.5,33.357581 L1.5,57.4300484" id="Line-Copy-4" stroke-linecap="square"></path>
                    <path d="M11.0489657,33.5 L0.436012345,33.5" id="Path-72-Copy"></path>
                    <path d="M69.7908745,0.702341137 L59.1444867,0.702341137" id="Path-73"></path>
                    <path d="M98.6343422,36.7558528 L87.8897338,36.7558528" id="Path-74"></path>
                </g>
                <path d="M153.5,139.297659 L0.133079848,139.297659" id="Line" stroke-linecap="square" sketch:type="MSShapeGroup"></path>
                <path d="M0.266159575,95.0100859 L35.9984046,50.1003344 L100.745402,79.8755017 L148,58.2762732" id="Path-64" stroke-dasharray="15,10" sketch:type="MSShapeGroup"></path>
                <path id="Line" stroke-linecap="square" sketch:type="MSShapeGroup" d="M54.6958175,138.829431 L55.095057,139.531773"></path>
            </g>
        </g>
    </g>
</svg>