<?xml version="1.0" encoding="UTF-8" standalone="no"?>
<svg width="240px" height="240px" viewBox="0 0 240 240" version="1.1" xmlns="http://www.w3.org/2000/svg" xmlns:xlink="http://www.w3.org/1999/xlink" xmlns:sketch="http://www.bohemiancoding.com/sketch/ns">
    <!-- Generator: Sketch 3.4.2 (15855) - http://www.bohemiancoding.com/sketch -->
    <title>mobileye</title>
    <desc>Created with Sketch.</desc>
    <defs>
        <ellipse id="path-1" cx="87.987812" cy="99.987812" rx="65.987812" ry="65.987812"></ellipse>
    </defs>
    <g id="Page-1" stroke="none" stroke-width="1" fill="none" fill-rule="evenodd" sketch:type="MSPage">
        <g id="mobileye" sketch:type="MSArtboardGroup">
            <rect id="Background" fill="#004280" sketch:type="MSShapeGroup" x="0" y="0" width="240" height="240"></rect>
            <g id="ALL" sketch:type="MSLayerGroup" transform="translate(32.000000, 21.000000)">
                <g id="Outer-Dials" transform="translate(0.000000, 11.000000)" stroke="#FFFFFF" stroke-width="3" sketch:type="MSShapeGroup">
                    <circle id="Oval-9" cx="87.729461" cy="87.729461" r="87.729461"></circle>
                    <path d="M88.1108935,169.356003 C133.402647,169.356003 170.118868,132.639782 170.118868,87.3480286 C170.118868,42.0562749 133.402647,5.34005415 88.1108935,5.34005415 C42.8191398,5.34005415 6.10291903,42.0562749 6.10291903,87.3480286 C6.10291903,132.639782 42.8191398,169.356003 88.1108935,169.356003 Z" id="Oval-9-Copy" fill="#FFFFFF"></path>
                </g>
                <mask id="mask-2" sketch:name="Mask" fill="white">
                    <use xlink:href="#path-1"></use>
                </mask>
                <use id="Mask" fill="#004280" sketch:type="MSShapeGroup" xlink:href="#path-1"></use>
                <g id="Center" mask="url(#mask-2)">
                    <g transform="translate(38.000000, 41.000000)">
                        <g id="Number" transform="translate(0.000000, 22.885946)">
                            <text id="0.7" sketch:type="MSTextLayer" font-family="Digital-7" font-size="50.8983456" font-weight="normal" line-spacing="52" letter-spacing="-1.39999998" fill="#FFFFFF">
                                <tspan x="23.6488112" y="55.3087571">0.</tspan>
                                <tspan x="53.2386676" y="55.3087571">7</tspan>
                            </text>
                            <path d="M0,7.62864878 L5.34005415,0 L7.62864878,0 L7.62864878,22.1230815 L0,22.1230815 L0,7.62864878 Z" id="Path-42" fill="#FFFFFF" sketch:type="MSShapeGroup"></path>
                            <path d="M0,57.2148659 L5.34005415,49.5862171 L7.62864878,49.5862171 L7.62864878,71.7092986 L0,71.7092986 L0,57.2148659 Z" id="Path-42-Copy-2" fill="#FFFFFF" sketch:type="MSShapeGroup" transform="translate(3.814324, 60.647758) scale(1, -1) translate(-3.814324, -60.647758) "></path>
                            <path d="M93.0695152,57.2148659 L98.4095693,49.5862171 L100.698164,49.5862171 L100.698164,71.7092986 L93.0695152,71.7092986 L93.0695152,57.2148659 Z" id="Path-42-Copy-3" fill="#FFFFFF" sketch:type="MSShapeGroup" transform="translate(96.883840, 60.647758) scale(-1, -1) translate(-96.883840, -60.647758) "></path>
                            <rect id="Rectangle-56" fill="#FFFFFF" sketch:type="MSShapeGroup" x="0" y="25.9374059" width="7.62864878" height="19.071622"></rect>
                            <rect id="Rectangle-56-Copy" fill="#FFFFFF" sketch:type="MSShapeGroup" x="93.0695152" y="25.9374059" width="7.62864878" height="19.071622"></rect>
                            <path d="M93.0695152,7.62864878 L98.4095693,0 L100.698164,0 L100.698164,22.1230815 L93.0695152,22.1230815 L93.0695152,7.62864878 Z" id="Path-42-Copy" fill="#FFFFFF" sketch:type="MSShapeGroup" transform="translate(96.883840, 11.061541) scale(-1, 1) translate(-96.883840, -11.061541) "></path>
                        </g>
                        <g id="Person" transform="translate(36.617514, 0.000000)">
                            <ellipse id="Oval-12" fill="#FFFFFF" sketch:type="MSShapeGroup" cx="9.15437854" cy="3.81432439" rx="3.81432439" ry="3.81432439"></ellipse>
                            <path d="M9.15437854,9.91724342 L13.7315678,6.86578391 L21.3602166,8.39151366 L26.7002707,16.7830273 L23.6488112,19.071622 L20.5973517,12.2058381 L16.7830273,12.2058381 L20.5973517,21.3602166 L20.5973517,27.4631356 L24.4116761,38.1432439 L20.5973517,40.4318386 L15.2572976,26.7002707 L12.2058381,29.7517303 L9.15437854,41.9575683 L4.57718927,39.6689737 L9.15437854,26.7002707 L12.9687029,22.1230815 L10.6801083,15.2572976 L9.15437854,18.3087571 L2.28859464,23.6488112 L0,19.8344868 L6.86578391,15.2572976 L9.15437854,9.91724342 Z" id="Path-36" fill="#FFFFFF" sketch:type="MSShapeGroup"></path>
                        </g>
                        <g id="Car" transform="translate(29.751730, 85.440866)">
                            <path d="M9.91724342,0 L31.27746,0 L35.8546493,6.86578391 L41.9575683,6.86578391 L41.9575683,11.4429732 L38.1432439,11.4429732 L38.9061088,12.9687029 L38.9061088,27.4631356 L32.8031898,27.4631356 L32.8031898,22.8228097 L8.38148733,22.8228097 L8.38148733,27.4631465 L1.52572976,27.4631465 L1.52572976,12.1867784 L3.81432439,11.4429732 L0,11.4429732 L0,6.86578391 L6.10291903,6.86578391 L9.91724342,0 Z" id="Path-37" fill="#FFFFFF" sketch:type="MSShapeGroup"></path>
                        </g>
                        <g id="High-Beam" transform="translate(18.308757, 81.626542)">
                            <path d="M12.2058381,1.52572976 C11.22439,0.824695418 8.39151366,0.762864878 8.39151366,0.762864878 L8.39151366,8.39151366 C8.39151366,8.39151366 11.2716314,8.29593922 12.2058381,7.62864878 C13.0516495,7.02449776 13.7315678,6.10291903 13.7315678,4.57718927 C13.7315678,3.05145951 13.004408,2.09613688 12.2058381,1.52572976 Z" id="Path-38" stroke="#FFFFFF" stroke-width="2" sketch:type="MSShapeGroup"></path>
                            <path d="M5.73418699,0.508576586 L0,0.508576586 L5.73418699,0.508576586 Z" id="Path-39" stroke="#FFFFFF" stroke-width="2" sketch:type="MSShapeGroup"></path>
                            <path d="M5.73418699,8.13722537 L0,8.13722537 L5.73418699,8.13722537 Z" id="Path-39-Copy" stroke="#FFFFFF" stroke-width="2" sketch:type="MSShapeGroup"></path>
                            <path d="M5.73418699,4.32290098 L0,4.32290098 L5.73418699,4.32290098 Z" id="Path-39-Copy-2" stroke="#FFFFFF" stroke-width="2" sketch:type="MSShapeGroup"></path>
                        </g>
                    </g>
                </g>
                <g id="Top-minus-+" transform="translate(35.000000, 42.000000)" stroke="#004280" stroke-width="2" sketch:type="MSShapeGroup">
                    <path d="M0,6.10291903 L6.10291903,0" id="Path-46"></path>
                    <path d="M102.223894,6.10291903 L108.326813,0" id="Path-46-Copy"></path>
                    <path d="M108.326813,6.10291903 L102.223894,0" id="Path-46-Copy-2"></path>
                </g>
                <g id="Dials" transform="translate(19.000000, 0.000000)" fill="#FFFFFF" sketch:type="MSShapeGroup">
                    <path d="M2,41 L2,41 C0.343145801,39.3431456 0.691532727,36.5340048 2.78513341,34.7195509 L10.2148666,28.2804489 C12.305338,26.4687071 15,27 16,29 L16,29 L2,41 Z" id="Path-49"></path>
                    <path d="M62.7298025,17.045363 L62.7298025,17.045363 C61.0729483,15.3885087 61.4213353,12.5793679 63.5149359,10.764914 L70.9446691,4.32581196 C73.0351405,2.5140701 75.7298025,3.04536309 76.7298025,5.04536304 L76.7298025,5.04536304 L62.7298025,17.045363 Z" id="Path-49-Copy-2" transform="translate(69.206872, 10.131768) rotate(40.000000) translate(-69.206872, -10.131768) "></path>
                    <path d="M123.04586,40.8271908 L123.04586,40.8271908 C121.389006,39.1703364 121.737393,36.3611956 123.830994,34.5467417 L131.260727,28.1076397 C133.351198,26.2958978 136.04586,26.8271908 137.04586,28.8271908 L137.04586,28.8271908 L123.04586,40.8271908 Z" id="Path-49-Copy" transform="translate(129.522930, 33.913595) scale(-1, 1) translate(-129.522930, -33.913595) "></path>
                </g>
            </g>
        </g>
    </g>
</svg>