<?xml version="1.0" encoding="iso-8859-1"?>
<!-- Generator: Adobe Illustrator 18.1.1, SVG Export Plug-In . SVG Version: 6.00 Build 0)  -->
<svg version="1.1" id="Capa_1" xmlns="http://www.w3.org/2000/svg" xmlns:xlink="http://www.w3.org/1999/xlink" x="0px" y="0px"
	 viewBox="0 0 23.033 23.033" style="enable-background:new 0 0 23.033 23.033;" xml:space="preserve">
<g>
	<g>
		<path style="fill:#030104;" d="M16.015,15.634c0,1.077,0.875,1.952,1.952,1.952s1.95-0.875,1.95-1.952
			c0-1.078-0.873-1.952-1.95-1.952S16.015,14.556,16.015,15.634z M17.11,15.634c0-0.472,0.385-0.856,0.857-0.856
			s0.855,0.385,0.855,0.856c0,0.473-0.384,0.857-0.855,0.857C17.495,16.491,17.11,16.107,17.11,15.634z"/>
		<path style="fill:#030104;" d="M1.071,14.922c-0.03,0.139-0.05,0.28-0.05,0.426c0,0.121,0.016,0.241,0.037,0.358H0v-0.784H1.071z"
			/>
		<path style="fill:#030104;" d="M7.169,14.922v0.784H6.363c0.016-0.117,0.027-0.237,0.027-0.358c0-0.146-0.014-0.287-0.037-0.426
			H7.169z"/>
		<path style="fill:#030104;" d="M15.55,15.704c0,0.073,0.005,0.145,0.012,0.215H7.387v-0.571h8.192
			C15.562,15.466,15.55,15.583,15.55,15.704z"/>
		<path style="fill:#030104;" d="M7.551,7.226c-0.057,0-0.109,0-0.164,0v7.427v0.531h8.22c0.238-1.096,1.218-1.922,2.387-1.922
			c1.07,0,1.979,0.694,2.309,1.655L20.4,14.98h2.005v-2.196h0.628V5.305H7.551V7.226z M21.549,12.784h0.305v1.214h-0.305V12.784z"/>
		<path style="fill:#030104;" d="M22.623,15.144v0.571h-2.179c0.005-0.071,0.012-0.142,0.012-0.215c0-0.121-0.012-0.24-0.031-0.356
			C20.425,15.144,22.623,15.144,22.623,15.144z"/>
		<path style="fill:#030104;" d="M0.072,14.707h1.189c0.287-1.128,1.309-1.965,2.523-1.965c1.216,0,2.237,0.837,2.523,1.965h0.876
			V7.213H1.684l-1.613,3.533v0.856v3.105H0.072z M0.79,10.961l1.172-3.178h4.621V9.64H4.46l-1.57,1.321H0.79z"/>
		<path style="fill:#030104;" d="M1.699,15.634c0,1.156,0.936,2.094,2.093,2.094c1.156,0,2.093-0.938,2.093-2.094
			c0-1.155-0.938-2.093-2.093-2.093C2.635,13.541,1.699,14.479,1.699,15.634z M2.873,15.634c0-0.506,0.413-0.918,0.919-0.918
			c0.507,0,0.918,0.412,0.918,0.918c0,0.507-0.412,0.918-0.918,0.918C3.286,16.552,2.873,16.141,2.873,15.634z"/>
	</g>
</g>
<g>
</g>
<g>
</g>
<g>
</g>
<g>
</g>
<g>
</g>
<g>
</g>
<g>
</g>
<g>
</g>
<g>
</g>
<g>
</g>
<g>
</g>
<g>
</g>
<g>
</g>
<g>
</g>
<g>
</g>
</svg>
