<?xml version="1.0" encoding="UTF-8" standalone="no"?>
<svg width="240px" height="240px" viewBox="0 0 240 240" version="1.1" xmlns="http://www.w3.org/2000/svg" xmlns:xlink="http://www.w3.org/1999/xlink" xmlns:sketch="http://www.bohemiancoding.com/sketch/ns">
    <!-- Generator: Sketch 3.4.2 (15855) - http://www.bohemiancoding.com/sketch -->
    <title>fuel_level_ecu</title>
    <desc>Created with Sketch.</desc>
    <defs></defs>
    <g id="Page-1" stroke="none" stroke-width="1" fill="none" fill-rule="evenodd" sketch:type="MSPage">
        <g id="fuel_level_ecu" sketch:type="MSArtboardGroup">
            <rect id="Background" fill="#1D394E" sketch:type="MSShapeGroup" x="0" y="0" width="240" height="240"></rect>
            <g id="Graph" sketch:type="MSLayerGroup" transform="translate(52.000000, 67.000000)" stroke="#FFFFFF">
                <g id="Axis" stroke-width="2" stroke-linecap="square" sketch:type="MSShapeGroup">
                    <path d="M7,0.5 L7,126.515869" id="Line"></path>
                    <path d="M136.5,120 L0.5,120" id="Line"></path>
                </g>
                <path d="M16,65 L18,63 L20,68 L22,67 L25,68 L26,65 L27,71 L29,69 L31,67 L31,70 L34,70 L37,74 L39,78 L42,77 L45,80 L47,85 L52,83 L54,91 L58,91 L62,97 L66,98 L70,98 L70,28 L72,28 L74,28 L74,31 L77,31 L79,31 L81,33 L84,34 L84,38 L87,38 L88,41 L92,41 L96,45 L99,44 L101,47 L101,51 L103,49 L105,52 L108,50 L111,53 L114,59 L118,58 L121,62 L124,63 L124,66 L128,70 L131,77 L136,76 L137,82" id="Line-Graph" stroke-width="5" sketch:type="MSShapeGroup"></path>
            </g>
            <g id="tank" sketch:type="MSLayerGroup" transform="translate(106.000000, 36.000000)">
                <g id="Dial" sketch:type="MSShapeGroup">
                    <g id="Tank-+-Hose">
                        <g id="Tank">
                            <rect id="Rectangle-9" fill="#FFFFFF" x="2" y="0" width="16.5327428" height="31" rx="10"></rect>
                            <rect id="Rectangle-11" fill="#1D394E" x="4" y="2" width="12" height="9" rx="2"></rect>
                            <rect id="Rectangle-9-Copy" fill="#FFFFFF" x="0" y="28.2599983" width="20" height="2.73529412" rx="10"></rect>
                        </g>
                        <path d="M18.2385321,12.0808824 C18.2385321,12.0808824 19.3216166,12.6784813 19.7798165,13.2205882 C20.0922588,13.590246 20.5504587,14.8161765 20.5504587,14.8161765 L20.5504587,24.1617647 C20.5504587,24.1617647 21.1835674,25.3464925 22.0917431,25.9852941 C22.9652268,26.5996937 24.1036302,26.6691176 24.6605505,26.6691176 C25.2376893,26.6691176 26.3659302,26.2834026 26.9724771,25.7573529 C27.7817984,25.0554399 28,24.1617647 28,24.1617647 C28,24.1617647 27.9230739,21.7282844 27.7431193,20.5147059 C27.4949393,18.8410295 26.2018349,15.5 26.2018349,15.5 C26.2018349,15.5 25.8751164,11.8906646 25.9449541,10.7132353 C26.0463702,9.00340973 26.7155963,6.83823529 26.7155963,6.83823529 C26.7155963,6.83823529 25.7803974,5.12351916 25.1743119,4.55882353 C24.0678592,3.52793093 23.6330275,3.64705883 23.6330275,3.64705883 L26.4587156,6.61029412" id="Hose" stroke="#FFFFFF" stroke-width="2"></path>
                    </g>
                </g>
            </g>
        </g>
    </g>
</svg>