<?xml version="1.0" encoding="UTF-8" standalone="no"?>
<svg width="240px" height="240px" viewBox="0 0 240 240" version="1.1" xmlns="http://www.w3.org/2000/svg" xmlns:xlink="http://www.w3.org/1999/xlink" xmlns:sketch="http://www.bohemiancoding.com/sketch/ns">
    <!-- Generator: Sketch 3.4.2 (15855) - http://www.bohemiancoding.com/sketch -->
    <title>mileage</title>
    <desc>Created with Sketch.</desc>
    <defs></defs>
    <g id="Page-1" stroke="none" stroke-width="1" fill="none" fill-rule="evenodd" sketch:type="MSPage">
        <g id="mileage" sketch:type="MSArtboardGroup">
            <rect id="Background" fill="#0293D5" sketch:type="MSShapeGroup" x="0" y="0" width="240" height="240"></rect>
            <g id="Truck" sketch:type="MSLayerGroup" transform="translate(41.000000, 39.000000)" fill="#FAFAFA">
                <path d="M123.636364,105.237433 C117.611439,105.237433 112.727273,100.363322 112.727273,94.3508021 C112.727273,88.3382819 117.611439,83.4641711 123.636364,83.4641711 C129.661288,83.4641711 134.545455,88.3382819 134.545455,94.3508021 C134.545455,100.363322 129.661288,105.237433 123.636364,105.237433 L123.636364,105.237433 Z M134.545455,39.9176471 L148.8,58.0620321 L116.363636,58.0620321 L116.363636,39.9176471 L134.545455,39.9176471 Z M36.3636364,105.237433 C30.3387118,105.237433 25.4545455,100.363322 25.4545455,94.3508021 C25.4545455,88.3382819 30.3387118,83.4641711 36.3636364,83.4641711 C42.3885609,83.4641711 47.2727273,88.3382819 47.2727273,94.3508021 C47.2727273,100.363322 42.3885609,105.237433 36.3636364,105.237433 L36.3636364,105.237433 Z M138.181818,29.031016 L116.363636,29.031016 L116.363636,0 L14.5454545,0 C6.47272727,0 0,6.45940107 0,14.515508 L0,94.3508021 L14.5454545,94.3508021 C14.5454545,106.375843 24.3137873,116.124064 36.3636364,116.124064 C48.4134855,116.124064 58.1818182,106.375843 58.1818182,94.3508021 L101.818182,94.3508021 C101.818182,106.375843 111.586515,116.124064 123.636364,116.124064 C135.686213,116.124064 145.454545,106.375843 145.454545,94.3508021 L160,94.3508021 L160,58.0620321 L138.181818,29.031016 L138.181818,29.031016 Z" id="Shape" sketch:type="MSShapeGroup"></path>
            </g>
            <g id="Odometer" sketch:type="MSLayerGroup" transform="translate(10.000000, 170.000000)" fill="#FAFAFA">
                <g id="numeric-1-box" transform="translate(0.000000, 0.750000)" sketch:type="MSShapeGroup">
                    <path d="M20.6016949,26.25 L16.8559322,26.25 L16.8559322,11.25 L13.1101695,11.25 L13.1101695,7.5 L20.6016949,7.5 L20.6016949,26.25 Z M29.9661017,0 L3.74576271,0 C1.67703509,0 0,1.67893219 0,3.75 L0,30 C0,32.0710678 1.67703509,33.75 3.74576271,33.75 L29.9661017,33.75 C32.0348293,33.75 33.7118644,32.0710678 33.7118644,30 L33.7118644,3.75 C33.7118644,1.67893219 32.0348293,0 29.9661017,0 L29.9661017,0 Z" id="Shape"></path>
                </g>
                <g id="numeric-2-box" transform="translate(37.457627, 0.750000)" sketch:type="MSShapeGroup">
                    <path d="M22.4745763,15 C22.4745763,17.08125 20.7889831,18.75 18.7288136,18.75 L14.9830508,18.75 L14.9830508,22.5 L22.4745763,22.5 L22.4745763,26.25 L11.2372881,26.25 L11.2372881,18.75 C11.2372881,16.66875 12.9228814,15 14.9830508,15 L18.7288136,15 L18.7288136,11.25 L11.2372881,11.25 L11.2372881,7.5 L18.7288136,7.5 C20.7975412,7.5 22.4745763,9.17893219 22.4745763,11.25 L22.4745763,15 Z M29.9661017,0 L3.74576271,0 C1.67703509,0 0,1.67893219 0,3.75 L0,30 C0,32.0710678 1.67703509,33.75 3.74576271,33.75 L29.9661017,33.75 C32.0348293,33.75 33.7118644,32.0710678 33.7118644,30 L33.7118644,3.75 C33.7118644,1.67893219 32.0348293,0 29.9661017,0 L29.9661017,0 Z" id="Shape"></path>
                </g>
                <g id="numeric-3-box" transform="translate(74.915254, 0.750000)" sketch:type="MSShapeGroup">
                    <path d="M22.4745763,14.0625 C22.4745763,15.6158009 21.2168,16.875 19.6652542,16.875 C21.2384746,16.875 22.4745763,18.13125 22.4745763,19.6875 L22.4745763,22.5 C22.4745763,24.58125 20.8077119,26.25 18.7288136,26.25 L11.2372881,26.25 L11.2372881,22.5 L18.7288136,22.5 L18.7288136,18.75 L14.9830508,18.75 L14.9830508,15 L18.7288136,15 L18.7288136,11.25 L11.2372881,11.25 L11.2372881,7.5 L18.7288136,7.5 C20.8077119,7.5 22.4745763,9.16875 22.4745763,11.25 L22.4745763,14.0625 Z M29.9661017,0 L3.74576271,0 C1.70432203,0 0,1.6875 0,3.75 L0,30 C0,32.0710678 1.67703509,33.75 3.74576271,33.75 L29.9661017,33.75 C32.045,33.75 33.7118644,32.0625 33.7118644,30 L33.7118644,3.75 C33.7118644,1.67893219 32.0348293,0 29.9661017,0 L29.9661017,0 Z" id="Shape"></path>
                </g>
                <g id="numeric-4-box" transform="translate(112.372881, 0.750000)" sketch:type="MSShapeGroup">
                    <path d="M22.4745763,26.25 L18.7288136,26.25 L18.7288136,18.75 L11.2372881,18.75 L11.2372881,7.5 L14.9830508,7.5 L14.9830508,15 L18.7288136,15 L18.7288136,7.5 L22.4745763,7.5 L22.4745763,26.25 Z M29.9661017,0 L3.74576271,0 C1.67703509,0 0,1.67893219 0,3.75 L0,30 C0,32.0710678 1.67703509,33.75 3.74576271,33.75 L29.9661017,33.75 C32.0348293,33.75 33.7118644,32.0710678 33.7118644,30 L33.7118644,3.75 C33.7118644,1.67893219 32.0348293,0 29.9661017,0 L29.9661017,0 Z" id="Shape"></path>
                </g>
                <g id="numeric-5-box" transform="translate(149.830508, 0.750000)" sketch:type="MSShapeGroup">
                    <path d="M22.4745763,11.25 L14.9830508,11.25 L14.9830508,15 L18.7288136,15 C20.7975412,15 22.4745763,16.6789322 22.4745763,18.75 L22.4745763,22.5 C22.4745763,24.58125 20.7889831,26.25 18.7288136,26.25 L11.2372881,26.25 L11.2372881,22.5 L18.7288136,22.5 L18.7288136,18.75 L11.2372881,18.75 L11.2372881,7.5 L22.4745763,7.5 L22.4745763,11.25 Z M29.9661017,0 L3.74576271,0 C1.67703509,0 0,1.67893219 0,3.75 L0,30 C0,32.0710678 1.67703509,33.75 3.74576271,33.75 L29.9661017,33.75 C32.0348293,33.75 33.7118644,32.0710678 33.7118644,30 L33.7118644,3.75 C33.7118644,1.67893219 32.0348293,0 29.9661017,0 L29.9661017,0 Z" id="Shape"></path>
                </g>
                <g id="numeric-6-7-box" transform="translate(187.288136, 0.000000)" sketch:type="MSShapeGroup">
                    <path d="M18.7288136,34.5 L29.9661017,34.5 C32.0348293,34.5 33.7118644,32.8210678 33.7118644,30.75 L33.7118644,4.5 C33.7118644,2.42893219 32.0348293,0.75 29.9661017,0.75 L18.7288136,0.75 L14.9830508,0.75 L14.9830508,4.5 L18.7288136,4.5 C20.7975412,4.5 22.4745763,6.17893219 22.4745763,8.25 L22.4745763,12 C22.4745763,14.08125 20.7889831,15.75 18.7288136,15.75 L14.9830508,15.75 C12.9143232,15.75 11.2372881,14.0710678 11.2372881,12 L11.2372881,0.75 L3.74576271,0.75 C1.67703509,0.75 0,2.42893219 0,4.5 L0,30.75 C0,32.8210678 1.67703509,34.5 3.74576271,34.5 L14.9830508,34.5 L18.7288136,27 L11.2372881,27 L11.2372881,23.25 L22.4745763,23.25 L22.4745763,27 L18.7288136,34.5 Z M14.9830508,12 L18.7288136,12 L18.7288136,8.25 L14.9830508,8.25 L14.9830508,12 Z" id="Shape"></path>
                </g>
            </g>
        </g>
    </g>
</svg>