<?xml version="1.0" encoding="UTF-8" standalone="no"?>
<svg width="240px" height="240px" viewBox="0 0 240 240" version="1.1" xmlns="http://www.w3.org/2000/svg" xmlns:xlink="http://www.w3.org/1999/xlink" xmlns:sketch="http://www.bohemiancoding.com/sketch/ns">
    <!-- Generator: Sketch 3.4.2 (15855) - http://www.bohemiancoding.com/sketch -->
    <title>satcom</title>
    <desc>Created with Sketch.</desc>
    <defs>
        <path d="M103.641115,108.265192 C97.9170687,114.130715 89.9245557,117.772427 81.0814755,117.772427 C72.6555558,117.772427 65.0018474,114.466197 59.3469042,109.080291 L81.5294778,73.6453222 L103.641115,108.265192 Z" id="path-1"></path>
    </defs>
    <g id="Page-1" stroke="none" stroke-width="1" fill="none" fill-rule="evenodd" sketch:type="MSPage">
        <g id="satcom" sketch:type="MSArtboardGroup">
            <rect id="Background" fill="#FFD600" sketch:type="MSShapeGroup" x="0" y="0" width="240" height="240"></rect>
            <g id="Satellite" sketch:type="MSLayerGroup" transform="translate(119.641396, 119.641396) rotate(-315.000000) translate(-119.641396, -119.641396) translate(39.141396, 60.641396)">
                <mask id="mask-2" sketch:name="Mask" fill="white">
                    <use xlink:href="#path-1"></use>
                </mask>
                <use id="Mask" opacity="0.272679571" sketch:type="MSShapeGroup" xlink:href="#path-1"></use>
                <path d="M79.5863847,104.013889 C96.5280408,104.013889 113.469697,88.8438132 113.469697,70.1305766 C113.469697,51.4173399 98.2996213,36.2472643 79.5863847,36.2472643 C60.873148,36.2472643 45.7030724,51.4173399 45.7030724,70.1305766 C45.7030724,88.8438132 62.6447285,104.013889 79.5863847,104.013889 Z" id="Oval-1-Copy-3" fill="#FFFFFF" sketch:type="MSShapeGroup" mask="url(#mask-2)"></path>
                <circle id="Oval-1-Copy" fill="#FFD600" sketch:type="MSShapeGroup" mask="url(#mask-2)" cx="80.3743687" cy="75.6464646" r="23.6395202"></circle>
                <ellipse id="Oval-1" fill="#FFFFFF" sketch:type="MSShapeGroup" mask="url(#mask-2)" cx="80.3743687" cy="75.6464646" rx="15.7596801" ry="15.7596801"></ellipse>
                <circle id="Oval-1-Copy-2" fill="#FFD600" sketch:type="MSShapeGroup" mask="url(#mask-2)" cx="80.3743687" cy="74.0704966" r="12.6077441"></circle>
                <path d="M1.42108547e-14,26.6332007 C1.42108547e-14,24.9798363 1.33478634,23.6395196 2.99028432,23.6395196 L56.8965002,23.6395196 C58.5479886,23.6395196 59.8867845,24.9755364 59.8867845,26.6351739 L59.8867845,33.352407 C59.8867845,35.0068611 61.2272725,36.3480612 62.8942653,36.3480611 L63.34882,36.348061 C65.0098058,36.348061 66.3563008,35.0144699 66.3563008,33.341456 L66.3563008,9.4558079 C66.3563008,9.4558079 69.3426096,0.00946615579 80.3743687,-5.18600211e-13 C91.4061448,-0.00946617037 94.5580808,9.45580808 94.5580808,9.45580808 L94.5580808,23.6395206 L94.5580808,33.3524068 C94.5580808,35.0068608 95.90532,36.3480607 97.5484,36.3480607 L97.9204378,36.3480607 C99.5719455,36.3480607 100.910757,35.0120441 100.910757,33.3524068 L100.910757,26.6351745 C100.910757,24.9807206 102.244456,23.6395206 103.91914,23.6395206 L157.740355,23.6395206 C159.401839,23.6395206 160.748737,24.973736 160.748737,26.6332015 L160.748737,52.1651985 C160.748737,53.8185628 159.415039,55.1588795 157.740355,55.1588796 L103.91914,55.1588827 C102.257656,55.1588828 100.910757,53.8081003 100.910757,52.1674631 L100.910757,46.7647507 C100.910757,45.1126352 99.5635177,43.7733309 97.9204378,43.7733308 L97.5484,43.7733307 C95.8968923,43.7733306 94.5580808,45.1120447 94.5580808,46.7816393 L94.5580808,69.3425975 C94.5580808,69.3425975 91.4061448,78.5938056 80.3743687,78.5938021 C69.3425926,78.5937986 66.3563008,69.342595 66.3563008,69.342595 L66.3563008,46.7816394 C66.3563008,45.1201965 65.0075252,43.773331 63.3615279,43.773331 L62.8926705,43.773331 C61.2325655,43.773331 59.8867845,45.1241136 59.8867845,46.7647507 L59.8867845,52.1674631 C59.8867845,53.8195786 58.5519982,55.1588828 56.8965002,55.1588827 L2.99028432,55.1588806 C1.33879589,55.1588805 1.42108547e-14,53.824665 1.42108547e-14,52.1651994 L1.42108547e-14,26.6332007 Z" id="Rectangle-5" stroke="#FFFFFF" stroke-width="4" fill="#FFFFFF" sketch:type="MSShapeGroup"></path>
            </g>
        </g>
    </g>
</svg>